<svg width="12" height="11" viewBox="0 0 12 11" fill="none" xmlns="http://www.w3.org/2000/svg">
<path d="M5.70923 0.748144C5.90049 0.408822 6.38913 0.408822 6.58038 0.748144L7.93687 3.15479C8.00822 3.28138 8.13111 3.37066 8.27355 3.3994L10.9816 3.9458C11.3634 4.02284 11.5144 4.48756 11.2508 4.77432L9.38111 6.8081C9.28276 6.91508 9.23582 7.05955 9.2525 7.2039L9.56968 9.94824C9.61439 10.3352 9.21908 10.6224 8.8649 10.4603L6.35289 9.31059C6.22076 9.25012 6.06886 9.25012 5.93673 9.31059L3.42472 10.4603C3.07054 10.6224 2.67522 10.3352 2.71994 9.94824L3.03711 7.2039C3.0538 7.05955 3.00686 6.91508 2.90851 6.8081L1.03883 4.77432C0.775221 4.48756 0.926219 4.02284 1.30803 3.9458L4.01607 3.3994C4.15851 3.37066 4.2814 3.28138 4.35275 3.15479L5.70923 0.748144Z" fill="#595959"/>
</svg>
