<svg width="11" height="11" viewBox="0 0 11 11" fill="none" xmlns="http://www.w3.org/2000/svg">
<path d="M5.23267 0.748144C5.42393 0.408822 5.91257 0.408822 6.10382 0.748144L7.46031 3.15479C7.53166 3.28138 7.65455 3.37066 7.79699 3.3994L10.505 3.9458C10.8868 4.02284 11.0378 4.48756 10.7742 4.77432L8.90454 6.8081C8.8062 6.91508 8.75926 7.05955 8.77594 7.2039L9.09311 9.94824C9.13783 10.3352 8.74252 10.6224 8.38834 10.4603L5.87633 9.31059C5.7442 9.25012 5.5923 9.25012 5.46017 9.31059L2.94816 10.4603C2.59398 10.6224 2.19866 10.3352 2.24338 9.94824L2.56055 7.2039C2.57723 7.05955 2.53029 6.91508 2.43195 6.8081L0.562272 4.77432C0.298659 4.48756 0.449656 4.02284 0.831472 3.9458L3.5395 3.3994C3.68194 3.37066 3.80484 3.28138 3.87619 3.15479L5.23267 0.748144Z" fill="#FFC85E"/>
</svg>
